<svg xmlns="http://www.w3.org/2000/svg" xmlns:xlink="http://www.w3.org/1999/xlink" viewBox="0 0 367.19 279.77"><defs><style>.cls-1{fill:none;stroke:#101010;stroke-linecap:round;stroke-linejoin:round;stroke-width:3.5px;}.cls-2{fill:url(#linear-gradient);}.cls-3{fill:url(#linear-gradient-2);}.cls-4{fill:#ed4264;}.cls-5{fill:url(#linear-gradient-3);}.cls-6{fill:url(#linear-gradient-4);}.cls-7{fill:#e5e5e5;}.cls-8{fill:#fefefe;}</style><linearGradient id="linear-gradient" x1="112.94" y1="251.42" x2="374.71" y2="100.29" gradientUnits="userSpaceOnUse"><stop offset="0" stop-color="#ffbb1e"/><stop offset="0.06" stop-color="#fca62a"/><stop offset="0.15" stop-color="#f7873c"/><stop offset="0.26" stop-color="#f36e4b"/><stop offset="0.38" stop-color="#f15a56"/><stop offset="0.52" stop-color="#ef4c5e"/><stop offset="0.69" stop-color="#ed4463"/><stop offset="1" stop-color="#ed4264"/></linearGradient><linearGradient id="linear-gradient-2" x1="72.92" y1="248.83" x2="153.56" y2="248.83" gradientUnits="userSpaceOnUse"><stop offset="0" stop-color="#ffbb1e"/><stop offset="0.27" stop-color="#ffb41e"/><stop offset="0.65" stop-color="#ffa21e"/><stop offset="1" stop-color="#ff8b1e"/></linearGradient><linearGradient id="linear-gradient-3" x1="126.01" y1="142.33" x2="305.37" y2="142.33" gradientUnits="userSpaceOnUse"><stop offset="0" stop-color="#e33f60"/><stop offset="1" stop-color="#ce3858"/></linearGradient><linearGradient id="linear-gradient-4" x1="217.21" y1="39.06" x2="244.93" y2="39.06" xlink:href="#linear-gradient-3"/></defs><title>trip_logo1 stroke</title><g id="Layer_2" data-name="Layer 2"><g id="Layer_1-2" data-name="Layer 1"><path class="cls-1" d="M365.11,83.66c-.21,2-.49,3.92-.84,5.85-.11.58-.23,1.17-.35,1.75L363.53,93c-.27,1.14-.56,2.28-.89,3.4-.22.76-.44,1.5-.68,2.24a73.28,73.28,0,0,1-9.11,18.71c-.52.76-1,1.51-1.58,2.25s-1.1,1.47-1.66,2.19-1.15,1.42-1.74,2.12-1.19,1.38-1.81,2c-.35.39-.71.77-1.07,1.15s-.73.75-1.1,1.12-1,1-1.48,1.44q-2.27,2-4.64,3.8-5.89,3.82-11.59,7.91l-.54.39a315.19,315.19,0,0,0-35.81,30c-.85.82-1.69,1.65-2.53,2.49s-1.68,1.67-2.51,2.52q-7.47,7.6-14.42,15.69c-.43.5-.86,1-1.28,1.51h0c-.35.41-.7.82-1,1.23q-7,8.27-13.33,17-2.5,3.42-4.91,6.91l-.18.27q-1.44,2.08-2.84,4.21a121,121,0,0,1-35.13,33.07c-1.7,1.06-3.44,2.08-5.2,3.05a119.87,119.87,0,0,1-48,14.52q-1.35-3.45-2.59-6.95l4.48,1.72h0c.17.08.32.13.51.2a1.19,1.19,0,0,1,.26.11.15.15,0,0,1,.09,0,2.31,2.31,0,0,0,.28.1,4.39,4.39,0,0,0,2.22-4.8l-4.52-3.49-.26-.21,0,0c.2-.1.42-.24.63-.35a148,148,0,0,1,21.56-10.14h0l.11,0a.7.7,0,0,0,.29-.25.65.65,0,0,0-.09-.81l-.11-.08-3.44-2.72-.9-.7h0l-.59-.39a11.68,11.68,0,0,0-1.28-.73,14,14,0,0,0-5.28-1.51l-.79-.05a151.26,151.26,0,0,0-20.42,0c-3.79.26-7.57.65-11.31,1.19l-11.72-9-2.61-2-28.4-21.91-5.45-4.2L86,204.66c1.46-.32,2.92-.61,4.39-.89l.78-.14,1.66-.31a73.92,73.92,0,0,0,54.82,25h.69A73.94,73.94,0,0,0,166,226.22a71,71,0,0,0,8.68-2.7c.77-.29,1.53-.59,2.29-.91a120.56,120.56,0,0,0,43.6-28.87q2.47-2.56,4.8-5.28c1.58-1.84,3.11-3.73,4.57-5.67q5.27-6.42,10.86-12.58a0,0,0,0,1,0,0c.42-.48.84-.94,1.28-1.41l.07-.08q2.88-3.15,5.85-6.22c1.37-1.43,2.76-2.85,4.15-4.25q2.31-2.33,4.67-4.6,4.31-4.19,8.77-8.21c.9-.82,1.81-1.63,2.72-2.44a358.12,358.12,0,0,1,36.85-28.57Z" transform="translate(0)"/><path class="cls-1" d="M153.56,274.56h0q-2.61.12-5.25.12c-.88,0-1.75,0-2.63,0a119.79,119.79,0,0,1-59.82-17.4h0A246.34,246.34,0,0,1,72.92,223h0c1,.71,2,1.41,3.06,2.11q4.6,3.15,9.32,6.19,15,9.63,30.44,17.77,3.66,1.91,7.32,3.73c1.89.94,3.77,1.85,5.65,2.76q7.33,3.53,14.78,6.71h0C146.7,266.45,150,270.56,153.56,274.56Z" transform="translate(0)"/><path class="cls-1" d="M365.44,75.9c0,1.92-.05,3.84-.14,5.73a1.34,1.34,0,0,1,0,.2c-.05.61-.11,1.22-.17,1.83l-60,30.76.24-.17a193.88,193.88,0,0,0-37.84,22.44L265.82,138c-.54.41-1.08.84-1.62,1.26a74.21,74.21,0,0,1-16.13,9.19q-2.23.93-4.54,1.71c-.63.21-1.27.42-1.92.61l-.34.11c-.56.17-1.12.34-1.69.49l-.49.13c-.6.17-1.2.32-1.81.47l-.46.11c-.73.17-1.46.33-2.2.48l-1.64.32-1.51.26c-.55.09-1.11.17-1.67.24l-1.26.16s0,0,0,0c-1.41.17-2.84.3-4.28.38-.59,0-1.18.07-1.78.09-.9,0-1.81.05-2.72.05A74.08,74.08,0,0,1,206,152.78l.56.24.2.09c-2.39-.52-4.76-1.13-7.1-1.8l-.22-.06-2-.61A120.76,120.76,0,0,1,126,90.93c-.49-2.33-.87-4.71-1.13-7.12-.08-.69-.14-1.38-.2-2.08,0-.49-.07-1-.1-1.49,0-.79-.08-1.59-.1-2.39s0-1.38,0-2.07,0-1.38,0-2.07q0-.66.06-1.32c0-.72.07-1.44.13-2.15a.06.06,0,0,1,0-.06c0-.69.12-1.38.19-2.07a.13.13,0,0,1,0-.06c0-.48.1-1,.16-1.42A73.53,73.53,0,0,1,133,41.37a74.76,74.76,0,0,1,11-15.61A73.87,73.87,0,0,1,188.16,2.48a74.81,74.81,0,0,1,10.44-.73,73.52,73.52,0,0,1,24.26,4.07,133.62,133.62,0,0,1,12.58,5.72,74.27,74.27,0,0,0-11.73,18.28,73.31,73.31,0,0,0-6,21.18c-.18,1.46-.32,2.94-.41,4.43-.08,1.11-.12,2.24-.14,3.37a71.57,71.57,0,0,0,.55,7.79A73.79,73.79,0,0,1,228.84,36,74.35,74.35,0,0,1,244.93,18h0l.05,0a69.88,69.88,0,0,1,7-5c.83-.52,1.67-1,2.52-1.52.55-.32,1.11-.63,1.68-.94a74.19,74.19,0,0,1,96,22.83c.46.65.9,1.31,1.34,2A73.92,73.92,0,0,1,365.29,70Q365.44,72.91,365.44,75.9Z" transform="translate(0)"/><path class="cls-1" d="M305.37,114.25A359.08,359.08,0,0,0,268.28,143c-.91.81-1.82,1.62-2.72,2.44q-4.46,4-8.77,8.21-2.36,2.28-4.67,4.6c-1.39,1.4-2.78,2.82-4.15,4.25q-3,3.07-5.85,6.22l-.07.08c-.44.47-.86.93-1.28,1.41a0,0,0,0,0,0,0q-5.58,6.16-10.86,12.58c-1.46,1.94-3,3.83-4.57,5.67s-3.15,3.57-4.8,5.28c-.72-.85-1.45-1.68-2.19-2.52l0-.07q-1.66-1.91-3.39-3.8h0l-.23-.25A316.3,316.3,0,0,0,158.1,137.9l-1.49-1A74.28,74.28,0,0,1,134.47,113,73.36,73.36,0,0,1,126,90.93a120.76,120.76,0,0,0,71.41,59.71l2,.61.22.06c2.34.67,4.71,1.28,7.1,1.8l-.2-.09-.56-.24a74.08,74.08,0,0,0,13.74,1.28c.91,0,1.82,0,2.72-.05.6,0,1.19,0,1.78-.09,1.44-.08,2.87-.21,4.28-.38,0,0,0,0,0,0l1.26-.16c.56-.07,1.12-.15,1.67-.24l1.51-.26c.55-.1,1.1-.2,1.64-.32.74-.14,1.47-.3,2.2-.48l.46-.11c.61-.15,1.21-.3,1.81-.47l.49-.13c.57-.15,1.13-.32,1.69-.49l.34-.11c.65-.19,1.29-.4,1.92-.61q2.31-.78,4.54-1.71a74.21,74.21,0,0,0,16.13-9.19c.54-.42,1.08-.85,1.62-1.26l1.71-1.31A193.88,193.88,0,0,1,305.37,114.25Z" transform="translate(0)"/><path class="cls-1" d="M244.93,18A74.35,74.35,0,0,0,228.84,36a73.79,73.79,0,0,0-11.08,30.64,71.57,71.57,0,0,1-.55-7.79c0-1.13.06-2.26.14-3.37.09-1.49.23-3,.41-4.43a73.31,73.31,0,0,1,6-21.18,74.27,74.27,0,0,1,11.73-18.28q1.09.63,2.16,1.29c1.42.88,2.82,1.81,4.18,2.78.58.42,1.16.85,1.73,1.29l.3.23.84.66A3.11,3.11,0,0,1,244.93,18Z" transform="translate(0)"/><path class="cls-1" d="M115.48,200.74a1.14,1.14,0,0,1-.24.25.85.85,0,0,1-.51.21h-.16a152.42,152.42,0,0,0-17,1.36c-1.61.22-3.23.47-4.83.75l-1.66.31-.78.14c-1.47.28-2.93.57-4.39.89l-5-3.82a120,120,0,0,1,20.82-1.8,118.15,118.15,0,0,1,13.77.79A1.06,1.06,0,0,1,115.48,200.74Z" transform="translate(0)"/><path class="cls-1" d="M101.82,199A120,120,0,0,0,81,200.84l5,3.82h0l-5-3.83-.49-.37-16.88-13h0q5.19-.15,10.41.06c1.07,0,2.14.09,3.21.16,1.33.07,2.65.17,4,.29l1.1.11c1.49.14,3,.3,4.5.49a145.22,145.22,0,0,1,15.94,2.89c.35.08.7.17,1.06.24l.23.07a18.76,18.76,0,0,1,2.6.92,19.85,19.85,0,0,1,3.22,1.7,21.3,21.3,0,0,1,5.57,5.19s0,0,0,.07a1.39,1.39,0,0,1,.11.21A118.15,118.15,0,0,0,101.82,199Z" transform="translate(0)"/><path class="cls-1" d="M41.48,196.35h0a2.59,2.59,0,0,0-.47,0h0l-.36,0h-.21l-.39,0h0a1.81,1.81,0,0,0-.78.28h0s0,0,0,0,0,0,0,0c-1.79-1.57-3.58-3.14-5.34-4.75h0l-.07-.07c-3-2.66-5.88-5.38-8.75-8.15-.52-.5-1-1-1.55-1.51Q14.42,173.3,6,164c-.26-.26-.5-.54-.74-.82-.07-.07-.11-.13-.18-.19-.19-.25-.39-.48-.57-.74A21.13,21.13,0,0,1,2,157.89a2.68,2.68,0,0,1,.19-2.53A316.05,316.05,0,0,0,41.48,196.35Z" transform="translate(0)"/><path class="cls-1" d="M163.1,268a4.46,4.46,0,0,1-1.61,1.48,2.31,2.31,0,0,1-.28-.1.15.15,0,0,0-.09,0,1.19,1.19,0,0,0-.26-.11c-.19-.07-.34-.12-.51-.2h0l-4.48-1.72q1.24,3.49,2.59,6.95.6,1.54,1.23,3.09s0,.05,0,.09a.57.57,0,0,1-.07.36.52.52,0,0,1-.46.23.21.21,0,0,1-.13,0,8.31,8.31,0,0,1-3.16-1.25,8.94,8.94,0,0,1-1.63-1.35.36.36,0,0,1-.1-.11c-.12-.14-.25-.3-.38-.44l-.24-.28c-3.52-4-6.86-8.11-10.06-12.32q-7.44-3.19-14.78-6.71c-1.88-.91-3.76-1.82-5.65-2.76q-3.66-1.83-7.32-3.73-15.45-8.13-30.44-17.77-4.72-3-9.32-6.19-1.55-1-3.06-2.1h0l0,0h0s0,0,0,0c.36-.6.24-1.53-.3-2.69h0l0,0A313.53,313.53,0,0,0,159,260.91l0,0,.26.21,4.52,3.49A4.45,4.45,0,0,1,163.1,268Z" transform="translate(0)"/><path class="cls-1" d="M181.56,250.13a.7.7,0,0,1-.29.25l-.11,0h0a148,148,0,0,0-21.56,10.14c-.21.11-.43.25-.63.35a313.53,313.53,0,0,1-86.32-40.65l0,0h0a12.47,12.47,0,0,0-.91-1.61,1.42,1.42,0,0,0-.14-.23,34.08,34.08,0,0,0-3-3.81c-.41-.46-.86-.92-1.32-1.4l-1-.95c-.33-.33-.66-.66-1-1l-.56-.52c-1.48-1.38-3.11-2.77-4.87-4.15l-.83-.65a64.67,64.67,0,0,0-13.88-8.49l-.9-.34a13.32,13.32,0,0,0-2.69-.74h0a316.05,316.05,0,0,1-39.31-41l0,0a2.7,2.7,0,0,1,2.23-1.24,21.06,21.06,0,0,1,8.78,1.53,27.58,27.58,0,0,0,8.32,6.43,18.59,18.59,0,0,1-6.43-6.78A14.19,14.19,0,0,1,24,157h0l.62.37c.21.13.42.27.61.41l.59.46,2.1,1.62,6.18,4.76.44.34.8.61,2.36,1.82,22.56,17.41,3.35,2.58,8.66,6.68h0L81,200.84l5,3.82,3.21,2.48,5.45,4.2L123,233.25l2.61,2,11.72,9c3.74-.54,7.52-.93,11.31-1.19a151.26,151.26,0,0,1,20.42,0l.79.05a14,14,0,0,1,5.28,1.51,11.68,11.68,0,0,1,1.28.73l.59.39h0l.9.7,3.44,2.72.11.08A.65.65,0,0,1,181.56,250.13Z" transform="translate(0)"/><path class="cls-1" d="M88,263.48s0,0,0,0a1.72,1.72,0,0,1-1.46.77,193.74,193.74,0,0,1-21.83-53.58l.56.52c.35.32.68.65,1,1l1,.95c.46.48.91.94,1.32,1.4a34.08,34.08,0,0,1,3,3.81,1.42,1.42,0,0,1,.14.23,12.47,12.47,0,0,1,.91,1.61h0c.54,1.16.66,2.09.3,2.69,0,0,0,0,0,0h0l0,0h0a246.34,246.34,0,0,0,12.92,34.27h0c.7,1.52,1.43,3.05,2.17,4.56A1.64,1.64,0,0,1,88,263.48Z" transform="translate(0)"/><path class="cls-1" d="M86.5,264.3a1.14,1.14,0,0,1-.26,0l-.19,0a35.89,35.89,0,0,1-19.69-14c-.22-.31-.42-.63-.64-.94,0,0,0,0,0,0A233.2,233.2,0,0,1,53.14,228.1h0c-.14-.24-.26-.48-.39-.72-.53-1-1-2-1.54-3h0q-5.06-10-9.14-20.34Q41,201.39,40,198.64l-.73-2s0,0,0,0a2.11,2.11,0,0,1,.78-.28h0l.39,0h.21l.36,0h0a4,4,0,0,1,.47,0h0a13.32,13.32,0,0,1,2.69.74l.9.34A64.67,64.67,0,0,1,59,205.92c2.08,1.59,4,3.21,5.7,4.8A193.74,193.74,0,0,0,86.5,264.3Z" transform="translate(0)"/><path class="cls-2" d="M365.11,83.66c-.21,2-.49,3.92-.84,5.85-.11.58-.23,1.17-.35,1.75L363.53,93c-.27,1.14-.56,2.28-.89,3.4-.22.76-.44,1.5-.68,2.24a73.28,73.28,0,0,1-9.11,18.71c-.52.76-1,1.51-1.58,2.25s-1.1,1.47-1.66,2.19-1.15,1.42-1.74,2.12-1.19,1.38-1.81,2c-.35.39-.71.77-1.07,1.15s-.73.75-1.1,1.12-1,1-1.48,1.44q-2.27,2-4.64,3.8-5.89,3.82-11.59,7.91l-.54.39a315.19,315.19,0,0,0-35.81,30c-.85.82-1.69,1.65-2.53,2.49s-1.68,1.67-2.51,2.52q-7.47,7.6-14.42,15.69c-.43.5-.86,1-1.28,1.51h0c-.35.41-.7.82-1,1.23q-7,8.27-13.33,17-2.5,3.42-4.91,6.91l-.18.27q-1.44,2.08-2.84,4.21a121,121,0,0,1-35.13,33.07c-1.7,1.06-3.44,2.08-5.2,3.05a119.87,119.87,0,0,1-48,14.52q-1.35-3.45-2.59-6.95l4.48,1.72h0c.17.08.32.13.51.2a1.19,1.19,0,0,1,.26.11.15.15,0,0,1,.09,0,2.31,2.31,0,0,0,.28.1,4.39,4.39,0,0,0,2.22-4.8l-4.52-3.49-.26-.21,0,0c.2-.1.42-.24.63-.35a148,148,0,0,1,21.56-10.14h0l.11,0a.7.7,0,0,0,.29-.25.65.65,0,0,0-.09-.81l-.11-.08-3.44-2.72-.9-.7h0l-.59-.39a11.68,11.68,0,0,0-1.28-.73,14,14,0,0,0-5.28-1.51l-.79-.05a151.26,151.26,0,0,0-20.42,0c-3.79.26-7.57.65-11.31,1.19l-11.72-9-2.61-2-28.4-21.91-5.45-4.2L86,204.66c1.46-.32,2.92-.61,4.39-.89l.78-.14,1.66-.31a73.92,73.92,0,0,0,54.82,25h.69A73.94,73.94,0,0,0,166,226.22a71,71,0,0,0,8.68-2.7c.77-.29,1.53-.59,2.29-.91a120.56,120.56,0,0,0,43.6-28.87q2.47-2.56,4.8-5.28c1.58-1.84,3.11-3.73,4.57-5.67q5.27-6.42,10.86-12.58a0,0,0,0,1,0,0c.42-.48.84-.94,1.28-1.41l.07-.08q2.88-3.15,5.85-6.22c1.37-1.43,2.76-2.85,4.15-4.25q2.31-2.33,4.67-4.6,4.31-4.19,8.77-8.21c.9-.82,1.81-1.63,2.72-2.44a358.12,358.12,0,0,1,36.85-28.57Z" transform="translate(0)"/><path class="cls-3" d="M153.56,274.56h0q-2.61.12-5.25.12c-.88,0-1.75,0-2.63,0a119.79,119.79,0,0,1-59.82-17.4h0A246.34,246.34,0,0,1,72.92,223h0c1,.71,2,1.41,3.06,2.11q4.6,3.15,9.32,6.19,15,9.63,30.44,17.77,3.66,1.91,7.32,3.73c1.89.94,3.77,1.85,5.65,2.76q7.33,3.53,14.78,6.71h0C146.7,266.45,150,270.56,153.56,274.56Z" transform="translate(0)"/><path class="cls-4" d="M365.44,75.9c0,1.92-.05,3.84-.14,5.73a1.34,1.34,0,0,1,0,.2c-.05.61-.11,1.22-.17,1.83l-60,30.76.24-.17a193.88,193.88,0,0,0-37.84,22.44L265.82,138c-.54.41-1.08.84-1.62,1.26a74.21,74.21,0,0,1-16.13,9.19q-2.23.93-4.54,1.71c-.63.21-1.27.42-1.92.61l-.34.11c-.56.17-1.12.34-1.69.49l-.49.13c-.6.17-1.2.32-1.81.47l-.46.11c-.73.17-1.46.33-2.2.48l-1.64.32-1.51.26c-.55.09-1.11.17-1.67.24l-1.26.16s0,0,0,0c-1.41.17-2.84.3-4.28.38-.59,0-1.18.07-1.78.09-.9,0-1.81.05-2.72.05A74.08,74.08,0,0,1,206,152.78l.56.24.2.09c-2.39-.52-4.76-1.13-7.1-1.8l-.22-.06-2-.61A120.76,120.76,0,0,1,126,90.93c-.49-2.33-.87-4.71-1.13-7.12-.08-.69-.14-1.38-.2-2.08,0-.49-.07-1-.1-1.49,0-.79-.08-1.59-.1-2.39s0-1.38,0-2.07,0-1.38,0-2.07q0-.66.06-1.32c0-.72.07-1.44.13-2.15a.06.06,0,0,1,0-.06c0-.69.12-1.38.19-2.07a.13.13,0,0,1,0-.06c0-.48.1-1,.16-1.42A73.53,73.53,0,0,1,133,41.37a74.76,74.76,0,0,1,11-15.61A73.87,73.87,0,0,1,188.16,2.48a74.81,74.81,0,0,1,10.44-.73,73.52,73.52,0,0,1,24.26,4.07,133.62,133.62,0,0,1,12.58,5.72,74.27,74.27,0,0,0-11.73,18.28,73.31,73.31,0,0,0-6,21.18c-.18,1.46-.32,2.94-.41,4.43-.08,1.11-.12,2.24-.14,3.37a71.57,71.57,0,0,0,.55,7.79A73.79,73.79,0,0,1,228.84,36,74.35,74.35,0,0,1,244.93,18h0l.05,0a69.88,69.88,0,0,1,7-5c.83-.52,1.67-1,2.52-1.52.55-.32,1.11-.63,1.68-.94a74.19,74.19,0,0,1,96,22.83c.46.65.9,1.31,1.34,2A73.92,73.92,0,0,1,365.29,70Q365.44,72.91,365.44,75.9Z" transform="translate(0)"/><path class="cls-5" d="M305.37,114.25A359.08,359.08,0,0,0,268.28,143c-.91.81-1.82,1.62-2.72,2.44q-4.46,4-8.77,8.21-2.36,2.28-4.67,4.6c-1.39,1.4-2.78,2.82-4.15,4.25q-3,3.07-5.85,6.22l-.07.08c-.44.47-.86.93-1.28,1.41a0,0,0,0,0,0,0q-5.58,6.16-10.86,12.58c-1.46,1.94-3,3.83-4.57,5.67s-3.15,3.57-4.8,5.28c-.72-.85-1.45-1.68-2.19-2.52l0-.07q-1.66-1.91-3.39-3.8h0l-.23-.25A316.3,316.3,0,0,0,158.1,137.9l-1.49-1A74.28,74.28,0,0,1,134.47,113,73.36,73.36,0,0,1,126,90.93a120.76,120.76,0,0,0,71.41,59.71l2,.61.22.06c2.34.67,4.71,1.28,7.1,1.8l-.2-.09-.56-.24a74.08,74.08,0,0,0,13.74,1.28c.91,0,1.82,0,2.72-.05.6,0,1.19,0,1.78-.09,1.44-.08,2.87-.21,4.28-.38,0,0,0,0,0,0l1.26-.16c.56-.07,1.12-.15,1.67-.24l1.51-.26c.55-.1,1.1-.2,1.64-.32.74-.14,1.47-.3,2.2-.48l.46-.11c.61-.15,1.21-.3,1.81-.47l.49-.13c.57-.15,1.13-.32,1.69-.49l.34-.11c.65-.19,1.29-.4,1.92-.61q2.31-.78,4.54-1.71a74.21,74.21,0,0,0,16.13-9.19c.54-.42,1.08-.85,1.62-1.26l1.71-1.31A193.88,193.88,0,0,1,305.37,114.25Z" transform="translate(0)"/><path class="cls-6" d="M244.93,18A74.35,74.35,0,0,0,228.84,36a73.79,73.79,0,0,0-11.08,30.64,71.57,71.57,0,0,1-.55-7.79c0-1.13.06-2.26.14-3.37.09-1.49.23-3,.41-4.43a73.31,73.31,0,0,1,6-21.18,74.27,74.27,0,0,1,11.73-18.28q1.09.63,2.16,1.29c1.42.88,2.82,1.81,4.18,2.78.58.42,1.16.85,1.73,1.29l.3.23.84.66A3.11,3.11,0,0,1,244.93,18Z" transform="translate(0)"/><path class="cls-7" d="M115.48,200.74a1.14,1.14,0,0,1-.24.25.85.85,0,0,1-.51.21h-.16a152.42,152.42,0,0,0-17,1.36c-1.61.22-3.23.47-4.83.75l-1.66.31-.78.14c-1.47.28-2.93.57-4.39.89l-5-3.82a120,120,0,0,1,20.82-1.8,118.15,118.15,0,0,1,13.77.79A1.06,1.06,0,0,1,115.48,200.74Z" transform="translate(0)"/><path class="cls-8" d="M101.82,199A120,120,0,0,0,81,200.84l5,3.82h0l-5-3.83-.49-.37-16.88-13h0q5.19-.15,10.41.06c1.07,0,2.14.09,3.21.16,1.33.07,2.65.17,4,.29l1.1.11c1.49.14,3,.3,4.5.49a145.22,145.22,0,0,1,15.94,2.89c.35.08.7.17,1.06.24l.23.07a18.76,18.76,0,0,1,2.6.92,19.85,19.85,0,0,1,3.22,1.7,21.3,21.3,0,0,1,5.57,5.19s0,0,0,.07a1.39,1.39,0,0,1,.11.21A118.15,118.15,0,0,0,101.82,199Z" transform="translate(0)"/><path class="cls-7" d="M41.48,196.35h0a2.59,2.59,0,0,0-.47,0h0l-.36,0h-.21l-.39,0h0a1.81,1.81,0,0,0-.78.28h0s0,0,0,0,0,0,0,0c-1.79-1.57-3.58-3.14-5.34-4.75h0l-.07-.07c-3-2.66-5.88-5.38-8.75-8.15-.52-.5-1-1-1.55-1.51Q14.42,173.3,6,164c-.26-.26-.5-.54-.74-.82-.07-.07-.11-.13-.18-.19-.19-.25-.39-.48-.57-.74A21.13,21.13,0,0,1,2,157.89a2.68,2.68,0,0,1,.19-2.53A316.05,316.05,0,0,0,41.48,196.35Z" transform="translate(0)"/><path class="cls-7" d="M163.1,268a4.46,4.46,0,0,1-1.61,1.48,2.31,2.31,0,0,1-.28-.1.15.15,0,0,0-.09,0,1.19,1.19,0,0,0-.26-.11c-.19-.07-.34-.12-.51-.2h0l-4.48-1.72q1.24,3.49,2.59,6.95.6,1.54,1.23,3.09s0,.05,0,.09a.57.57,0,0,1-.07.36.52.52,0,0,1-.46.23.21.21,0,0,1-.13,0,8.31,8.31,0,0,1-3.16-1.25,8.94,8.94,0,0,1-1.63-1.35.36.36,0,0,1-.1-.11c-.12-.14-.25-.3-.38-.44l-.24-.28c-3.52-4-6.86-8.11-10.06-12.32q-7.44-3.19-14.78-6.71c-1.88-.91-3.76-1.82-5.65-2.76q-3.66-1.83-7.32-3.73-15.45-8.13-30.44-17.77-4.72-3-9.32-6.19-1.55-1-3.06-2.1h0l0,0h0s0,0,0,0c.36-.6.24-1.53-.3-2.69h0l0,0A313.53,313.53,0,0,0,159,260.91l0,0,.26.21,4.52,3.49A4.45,4.45,0,0,1,163.1,268Z" transform="translate(0)"/><path class="cls-8" d="M181.56,250.13a.7.7,0,0,1-.29.25l-.11,0h0a148,148,0,0,0-21.56,10.14c-.21.11-.43.25-.63.35a313.53,313.53,0,0,1-86.32-40.65l0,0h0a12.47,12.47,0,0,0-.91-1.61,1.42,1.42,0,0,0-.14-.23,34.08,34.08,0,0,0-3-3.81c-.41-.46-.86-.92-1.32-1.4l-1-.95c-.33-.33-.66-.66-1-1l-.56-.52c-1.48-1.38-3.11-2.77-4.87-4.15l-.83-.65a64.67,64.67,0,0,0-13.88-8.49l-.9-.34a13.32,13.32,0,0,0-2.69-.74h0a316.05,316.05,0,0,1-39.31-41l0,0a2.7,2.7,0,0,1,2.23-1.24,21.06,21.06,0,0,1,8.78,1.53,27.58,27.58,0,0,0,8.32,6.43,18.59,18.59,0,0,1-6.43-6.78A14.19,14.19,0,0,1,24,157h0l.62.37c.21.13.42.27.61.41l.59.46,2.1,1.62,6.18,4.76.44.34.8.61,2.36,1.82,22.56,17.41,3.35,2.58,8.66,6.68h0L81,200.84l5,3.82,3.21,2.48,5.45,4.2L123,233.25l2.61,2,11.72,9c3.74-.54,7.52-.93,11.31-1.19a151.26,151.26,0,0,1,20.42,0l.79.05a14,14,0,0,1,5.28,1.51,11.68,11.68,0,0,1,1.28.73l.59.39h0l.9.7,3.44,2.72.11.08A.65.65,0,0,1,181.56,250.13Z" transform="translate(0)"/><path class="cls-7" d="M88,263.48s0,0,0,0a1.72,1.72,0,0,1-1.46.77,193.74,193.74,0,0,1-21.83-53.58l.56.52c.35.32.68.65,1,1l1,.95c.46.48.91.94,1.32,1.4a34.08,34.08,0,0,1,3,3.81,1.42,1.42,0,0,1,.14.23,12.47,12.47,0,0,1,.91,1.61h0c.54,1.16.66,2.09.3,2.69,0,0,0,0,0,0h0l0,0h0a246.34,246.34,0,0,0,12.92,34.27h0c.7,1.52,1.43,3.05,2.17,4.56A1.64,1.64,0,0,1,88,263.48Z" transform="translate(0)"/><path class="cls-8" d="M86.5,264.3a1.14,1.14,0,0,1-.26,0l-.19,0a35.89,35.89,0,0,1-19.69-14c-.22-.31-.42-.63-.64-.94,0,0,0,0,0,0A233.2,233.2,0,0,1,53.14,228.1h0c-.14-.24-.26-.48-.39-.72-.53-1-1-2-1.54-3h0q-5.06-10-9.14-20.34Q41,201.39,40,198.64l-.73-2s0,0,0,0a2.11,2.11,0,0,1,.78-.28h0l.39,0h.21l.36,0h0a4,4,0,0,1,.47,0h0a13.32,13.32,0,0,1,2.69.74l.9.34A64.67,64.67,0,0,1,59,205.92c2.08,1.59,4,3.21,5.7,4.8A193.74,193.74,0,0,0,86.5,264.3Z" transform="translate(0)"/></g></g></svg>