<svg xmlns="http://www.w3.org/2000/svg" viewBox="0 0 328.79 352.45"><defs><style>.cls-1{fill:#ed4264;}.cls-2{fill:none;}</style></defs><title>trip_logo2 one-color</title><g id="Layer_2" data-name="Layer 2"><g id="Layer_1-2" data-name="Layer 1"><path class="cls-1" d="M89.64,64.79A38.68,38.68,0,0,1,119,67c.06-.22.13-.43.2-.65a101.12,101.12,0,0,1,36.62-50.6A101.61,101.61,0,0,0,33.06,176.69q3.06,2.55,6.1,5.15A692.26,692.26,0,0,1,137,284.64a692.65,692.65,0,0,0-16.62-148.95,38.81,38.81,0,1,1-30.73-70.9Zm109.07,67.78c.28-1.21.56-2.42.86-3.63a38.32,38.32,0,0,1-4.68-5.75c-.24-.36-.47-.72-.7-1.09-.13-.21-.26-.41-.38-.62a38.47,38.47,0,0,1-2.87-5.92c-.12-.29-.23-.58-.33-.88s-.21-.59-.31-.89-.19-.6-.28-.9c-.24-.77-.44-1.54-.63-2.32-.11-.46-.21-.91-.3-1.38s-.16-.83-.23-1.25l-.06-.38c-.06-.37-.11-.73-.15-1.1,0-.19-.05-.38-.07-.57s-.07-.61-.09-.92-.06-.64-.07-1,0-.66,0-1a38.69,38.69,0,0,1,1.88-13.36c.14-.43.29-.85.44-1.27s.23-.61.35-.91.13-.35.21-.53.15-.35.22-.53c.32-.77.67-1.53,1.05-2.27l.39-.74c.35-.69.74-1.36,1.15-2l.49-.79.2-.3.52-.78c.42-.61.86-1.2,1.32-1.78l.65-.81a.69.69,0,0,1,.11-.13L198,76c.24-.28.49-.55.74-.81s.5-.53.76-.79c-.37-1.37-.79-2.74-1.23-4.11q-1-3-2.15-6a101.05,101.05,0,0,0-31.75-42.55,101,101,0,0,0-33.82,48.47c-.46,1.4-.88,2.8-1.27,4.21a38.84,38.84,0,0,1,0,54.53,693.15,693.15,0,0,1,19,170.63q4.62,6.33,9.11,12.78,3.56,5.08,7,10.25,9.8,14.63,18.89,29.81-2.38-26.52-2.73-52.9-.12-9.49,0-19A693.64,693.64,0,0,1,198.71,132.57Z"/><path class="cls-2" d="M117.51,123.37q1.48,6.15,2.86,12.32A38.81,38.81,0,1,1,119,67a101.07,101.07,0,0,0-2.18,53.62l.6,2.41C117.45,123.14,117.48,123.26,117.51,123.37Z"/><path class="cls-1" d="M258.56,5c-1.36-.44-2.73-.86-4.1-1.24A101.6,101.6,0,0,0,130.54,70.24c-.46,1.4-.88,2.8-1.27,4.21a100.93,100.93,0,0,0-1.11,50.06c.2.8.39,1.6.59,2.41,0,.12.05.23.09.35.14.57.27,1.14.41,1.71a693.15,693.15,0,0,1,19,170.63q-.19,13.9-.94,27.86-.66,12.43-1.79,24.91,9.08-15.15,18.84-29.74,7.86-11.73,16.16-23.09A693,693,0,0,1,289.64,181.77q3-2.6,6.1-5.14A101.64,101.64,0,0,0,258.56,5Zm5.51,108.63a38.82,38.82,0,0,1-48.9,24.92q-.66-.21-1.29-.45l-.3-.11c-1.05-.39-2.07-.82-3.07-1.3-.5-.23-1-.47-1.47-.74,0,0,0,0,0,0-.83-.43-1.63-.9-2.42-1.38-.44-.28-.87-.56-1.29-.85s-.81-.56-1.2-.85l-.19-.14-.83-.63-.43-.35q-.41-.33-.81-.69c-.79-.67-1.55-1.38-2.28-2.12a38.32,38.32,0,0,1-4.68-5.75c-.24-.36-.47-.72-.7-1.09-.13-.21-.26-.41-.38-.62a38.47,38.47,0,0,1-2.87-5.92c-.12-.29-.23-.58-.33-.88s-.21-.59-.31-.89-.19-.6-.28-.9c-.24-.77-.44-1.54-.63-2.32-.11-.46-.21-.91-.3-1.38s-.16-.83-.23-1.25l-.06-.38c-.06-.37-.11-.73-.15-1.1,0-.19-.05-.38-.07-.57s-.07-.61-.09-.92-.06-.64-.07-1,0-.66,0-1a38.69,38.69,0,0,1,1.88-13.36c.14-.43.29-.85.44-1.27s.23-.61.35-.91.13-.35.21-.53.15-.35.22-.53c.32-.77.67-1.53,1.05-2.27l.39-.74c.35-.69.74-1.36,1.15-2l.49-.79.2-.3.52-.78c.42-.61.86-1.2,1.32-1.78l.65-.81a.69.69,0,0,1,.11-.13L198,76c.24-.28.49-.55.74-.81s.5-.53.76-.79.43-.43.64-.64a0,0,0,0,1,0,0c.19-.19.37-.36.56-.53a1.29,1.29,0,0,1,.18-.16c.23-.22.47-.43.71-.64a3.68,3.68,0,0,1,.37-.32l.36-.31q.38-.32.75-.6l.67-.52c.56-.43,1.13-.83,1.7-1.21.21-.15.43-.3.66-.44.6-.39,1.2-.76,1.81-1.1l.72-.4c.73-.4,1.47-.78,2.22-1.12l.38-.17c.39-.18.79-.35,1.18-.51s.93-.38,1.4-.55l1-.34.7-.23c.39-.13.78-.24,1.17-.35s1-.26,1.46-.38,1-.23,1.47-.32.79-.16,1.19-.22l.42-.07c.35-.06.72-.1,1.08-.15.64-.09,1.28-.15,1.93-.2l1.08-.06c.62,0,1.23,0,1.85,0l1.22,0,.48,0c.43,0,.87,0,1.3.08A7.4,7.4,0,0,1,231,63c.37,0,.73.07,1.09.12a4.11,4.11,0,0,1,.6.08c.4.05.8.12,1.2.19l.13,0h.08c.41.07.81.15,1.22.24s.87.19,1.3.3.84.21,1.26.33l1.33.41A38.8,38.8,0,0,1,264.07,113.63Z"/><path class="cls-2" d="M128.84,127.27c.14.57.27,1.14.41,1.71a38.56,38.56,0,0,1-8.88,6.71q-1.37-6.18-2.86-12.32c0-.11-.06-.23-.08-.34l-.6-2.41A101.07,101.07,0,0,1,119,67a38.68,38.68,0,0,1,10.26,7.45,100.93,100.93,0,0,0-1.11,50.06c.2.8.39,1.6.59,2.41C128.78,127,128.8,127.15,128.84,127.27Z"/><path class="cls-2" d="M148.26,299.61q-5.53-7.58-11.27-15a692.65,692.65,0,0,0-16.62-148.95,38.56,38.56,0,0,0,8.88-6.71A693.15,693.15,0,0,1,148.26,299.61Z"/><path class="cls-2" d="M164.36,21.77a101,101,0,0,0-33.82,48.47c-.46,1.4-.88,2.8-1.27,4.21A38.68,38.68,0,0,0,119,67c.06-.22.13-.43.2-.65a101.12,101.12,0,0,1,36.62-50.6A100.87,100.87,0,0,1,164.36,21.77Z"/><circle class="cls-2" cx="227.16" cy="101.64" r="38.81"/></g></g></svg>