<svg xmlns="http://www.w3.org/2000/svg" xmlns:xlink="http://www.w3.org/1999/xlink" viewBox="0 0 332.79 356.45"><defs><style>.cls-1,.cls-4{fill:none;}.cls-1{stroke:#231f20;stroke-linecap:round;stroke-linejoin:round;stroke-width:4px;}.cls-2{fill:#d63a5b;}.cls-3{fill:#fefefe;}.cls-4{stroke:lime;stroke-miterlimit:10;}.cls-5{fill:url(#linear-gradient);}.cls-6{fill:#ba3555;}</style><linearGradient id="linear-gradient" x1="200.53" y1="5.49" x2="258.59" y2="334.79" gradientUnits="userSpaceOnUse"><stop offset="0" stop-color="#d63a5b"/><stop offset="0.25" stop-color="#ed4264"/><stop offset="0.41" stop-color="#ed4562"/><stop offset="0.55" stop-color="#ef505c"/><stop offset="0.67" stop-color="#f26152"/><stop offset="0.79" stop-color="#f57944"/><stop offset="0.9" stop-color="#fa9832"/><stop offset="1" stop-color="#ffbb1e"/></linearGradient></defs><title>Asset 4</title><g id="Layer_2" data-name="Layer 2"><g id="Layer_1-2" data-name="Layer 1"><path class="cls-1" d="M201.49,76.42c-.37-1.37-.79-2.74-1.23-4.11q-1-3-2.15-6a101.05,101.05,0,0,0-31.75-42.55,101,101,0,0,0-33.82,48.47c-.46,1.4-.88,2.8-1.27,4.21a38.84,38.84,0,0,1,0,54.53,693.15,693.15,0,0,1,19,170.63q4.62,6.33,9.11,12.78,3.56,5.08,7,10.25,9.8,14.63,18.89,29.81-2.38-26.52-2.73-52.9-.12-9.49,0-19a693.64,693.64,0,0,1,18.17-148c.28-1.21.56-2.42.86-3.63.12-.54.25-1.07.38-1.61,0-.11.06-.23.09-.34.2-.81.39-1.61.59-2.41A100.87,100.87,0,0,0,201.49,76.42Zm-85.87,64.19A38.81,38.81,0,1,1,121,69c.06-.22.13-.43.2-.65a101.12,101.12,0,0,1,36.62-50.6A101.61,101.61,0,0,0,35.06,178.69q3.06,2.55,6.1,5.15A692.26,692.26,0,0,1,139,286.64a692.65,692.65,0,0,0-16.62-148.95A38.85,38.85,0,0,1,115.62,140.61Z" transform="translate(0 0)"/><path class="cls-1" d="M119.51,125.37q1.48,6.15,2.86,12.32A38.81,38.81,0,1,1,121,69a101.07,101.07,0,0,0-2.18,53.62l.6,2.41C119.45,125.14,119.48,125.26,119.51,125.37Z" transform="translate(0 0)"/><circle class="cls-1" cx="229.16" cy="103.63" r="38.81"/><path class="cls-1" d="M260.56,7c-1.36-.44-2.73-.86-4.1-1.24A101.6,101.6,0,0,0,132.54,72.24c-.46,1.4-.88,2.8-1.27,4.21a100.93,100.93,0,0,0-1.11,50.06c.2.8.39,1.6.59,2.41,0,.12.05.23.09.35.14.57.27,1.14.41,1.71a693.15,693.15,0,0,1,19,170.63q-.19,13.9-.94,27.86-.66,12.43-1.79,24.91,9.08-15.15,18.84-29.74,7.86-11.73,16.16-23.09A693,693,0,0,1,291.64,183.77q3-2.6,6.1-5.14A101.64,101.64,0,0,0,260.56,7ZM236,65.43h.07c.41.07.81.15,1.22.24s.87.19,1.3.3l1.26.33,1.33.41a38.81,38.81,0,0,1-24,73.82q-.66-.21-1.29-.45l-.3-.11c-1.05-.39-2.07-.82-3.07-1.3-.5-.23-1-.47-1.47-.74,0,0,0,0,0,0-.83-.43-1.63-.9-2.42-1.38-.44-.28-.87-.56-1.29-.85s-.81-.56-1.2-.85l-.19-.14-.83-.63-.43-.35q-.41-.33-.81-.69c-.79-.67-1.55-1.38-2.28-2.12a38.32,38.32,0,0,1-4.68-5.75c-.24-.36-.47-.72-.7-1.09-.13-.21-.26-.41-.38-.62a38.47,38.47,0,0,1-2.87-5.92c-.12-.29-.23-.58-.33-.88s-.21-.59-.31-.89-.19-.6-.28-.9c-.24-.77-.44-1.54-.63-2.32-.11-.46-.21-.91-.3-1.38s-.16-.83-.23-1.25l-.06-.38c-.06-.37-.11-.73-.15-1.1,0-.19-.05-.38-.07-.57s-.07-.61-.09-.92-.06-.64-.07-1,0-.66,0-1a38.69,38.69,0,0,1,1.88-13.36c.14-.43.29-.85.44-1.27s.23-.61.35-.91.13-.35.21-.53.15-.35.22-.53c.32-.77.67-1.53,1.05-2.27l.39-.74c.35-.69.74-1.36,1.15-2l.49-.79.2-.3.52-.78c.42-.61.86-1.2,1.32-1.78l.65-.81a.69.69,0,0,1,.11-.13L200,78c.24-.28.49-.55.74-.81s.5-.53.76-.79.43-.43.64-.64a0,0,0,0,1,0,0c.19-.19.37-.36.56-.53a1.29,1.29,0,0,1,.18-.16c.23-.22.47-.43.71-.64a3.68,3.68,0,0,1,.37-.32l.36-.31q.38-.32.75-.6l.67-.52c.56-.43,1.13-.83,1.7-1.21.21-.15.43-.3.66-.44.6-.39,1.2-.76,1.81-1.1l.72-.4c.73-.4,1.47-.78,2.22-1.12l.38-.17c.39-.18.79-.35,1.18-.51s.93-.38,1.4-.55l1-.34.7-.23c.39-.13.78-.24,1.17-.35s1-.26,1.46-.38,1-.23,1.47-.32.79-.16,1.19-.22l.42-.07c.35-.06.72-.1,1.08-.15.64-.09,1.28-.15,1.93-.2q.54,0,1.08-.06c.62,0,1.23-.05,1.85-.05l1.22,0,.48,0c.43,0,.87,0,1.3.08A7.4,7.4,0,0,1,233,65c.37,0,.73.07,1.09.12a4.11,4.11,0,0,1,.6.08c.4,0,.8.12,1.2.19l.13,0Z" transform="translate(0 0)"/><path class="cls-1" d="M130.84,129.27c.14.57.27,1.14.41,1.71a38.56,38.56,0,0,1-8.88,6.71q-1.37-6.18-2.86-12.32c0-.11-.06-.23-.08-.34l-.6-2.41A101.07,101.07,0,0,1,121,69a38.68,38.68,0,0,1,10.26,7.45,100.93,100.93,0,0,0-1.11,50.06c.2.8.39,1.6.59,2.41C130.78,129,130.8,129.15,130.84,129.27Z" transform="translate(0 0)"/><path class="cls-1" d="M150.26,301.61q-5.53-7.58-11.27-15a692.65,692.65,0,0,0-16.62-148.95,38.56,38.56,0,0,0,8.88-6.71A693.15,693.15,0,0,1,150.26,301.61Z" transform="translate(0 0)"/><path class="cls-1" d="M166.36,23.77a101,101,0,0,0-33.82,48.47c-.46,1.4-.88,2.8-1.27,4.21A38.68,38.68,0,0,0,121,69c.06-.22.13-.43.2-.65a101.12,101.12,0,0,1,36.62-50.6A100.87,100.87,0,0,1,166.36,23.77Z" transform="translate(0 0)"/><circle class="cls-1" cx="229.16" cy="103.63" r="38.81"/><path class="cls-2" d="M201.49,76.42c-.37-1.37-.79-2.74-1.23-4.11q-1-3-2.15-6a101.05,101.05,0,0,0-31.75-42.55,101,101,0,0,0-33.82,48.47c-.46,1.4-.88,2.8-1.27,4.21a38.84,38.84,0,0,1,0,54.53,693.15,693.15,0,0,1,19,170.63q4.62,6.33,9.11,12.78,3.56,5.08,7,10.25,9.8,14.63,18.89,29.81-2.38-26.52-2.73-52.9-.12-9.49,0-19a693.64,693.64,0,0,1,18.17-148c.28-1.21.56-2.42.86-3.63.12-.54.25-1.07.38-1.61,0-.11.06-.23.09-.34.2-.81.39-1.61.59-2.41A100.87,100.87,0,0,0,201.49,76.42Zm-85.87,64.19A38.81,38.81,0,1,1,121,69c.06-.22.13-.43.2-.65a101.12,101.12,0,0,1,36.62-50.6A101.61,101.61,0,0,0,35.06,178.69q3.06,2.55,6.1,5.15A692.26,692.26,0,0,1,139,286.64a692.65,692.65,0,0,0-16.62-148.95A38.85,38.85,0,0,1,115.62,140.61Z" transform="translate(0 0)"/><path class="cls-3" d="M119.51,125.37q1.48,6.15,2.86,12.32A38.81,38.81,0,1,1,121,69a101.07,101.07,0,0,0-2.18,53.62l.6,2.41C119.45,125.14,119.48,125.26,119.51,125.37Z" transform="translate(0 0)"/><circle class="cls-4" cx="229.16" cy="103.63" r="38.81"/><path class="cls-5" d="M260.56,7c-1.36-.44-2.73-.86-4.1-1.24A101.6,101.6,0,0,0,132.54,72.24c-.46,1.4-.88,2.8-1.27,4.21a100.93,100.93,0,0,0-1.11,50.06c.2.8.39,1.6.59,2.41,0,.12.05.23.09.35.14.57.27,1.14.41,1.71a693.15,693.15,0,0,1,19,170.63q-.19,13.9-.94,27.86-.66,12.43-1.79,24.91,9.08-15.15,18.84-29.74,7.86-11.73,16.16-23.09A693,693,0,0,1,291.64,183.77q3-2.6,6.1-5.14A101.64,101.64,0,0,0,260.56,7ZM236,65.43h.07c.41.07.81.15,1.22.24s.87.19,1.3.3l1.26.33,1.33.41a38.81,38.81,0,0,1-24,73.82q-.66-.21-1.29-.45l-.3-.11c-1.05-.39-2.07-.82-3.07-1.3-.5-.23-1-.47-1.47-.74,0,0,0,0,0,0-.83-.43-1.63-.9-2.42-1.38-.44-.28-.87-.56-1.29-.85s-.81-.56-1.2-.85l-.19-.14-.83-.63-.43-.35q-.41-.33-.81-.69c-.79-.67-1.55-1.38-2.28-2.12a38.32,38.32,0,0,1-4.68-5.75c-.24-.36-.47-.72-.7-1.09-.13-.21-.26-.41-.38-.62a38.47,38.47,0,0,1-2.87-5.92c-.12-.29-.23-.58-.33-.88s-.21-.59-.31-.89-.19-.6-.28-.9c-.24-.77-.44-1.54-.63-2.32-.11-.46-.21-.91-.3-1.38s-.16-.83-.23-1.25l-.06-.38c-.06-.37-.11-.73-.15-1.1,0-.19-.05-.38-.07-.57s-.07-.61-.09-.92-.06-.64-.07-1,0-.66,0-1a38.69,38.69,0,0,1,1.88-13.36c.14-.43.29-.85.44-1.27s.23-.61.35-.91.13-.35.21-.53.15-.35.22-.53c.32-.77.67-1.53,1.05-2.27l.39-.74c.35-.69.74-1.36,1.15-2l.49-.79.2-.3.52-.78c.42-.61.86-1.2,1.32-1.78l.65-.81a.69.69,0,0,1,.11-.13L200,78c.24-.28.49-.55.74-.81s.5-.53.76-.79.43-.43.64-.64a0,0,0,0,1,0,0c.19-.19.37-.36.56-.53a1.29,1.29,0,0,1,.18-.16c.23-.22.47-.43.71-.64a3.68,3.68,0,0,1,.37-.32l.36-.31q.38-.32.75-.6l.67-.52c.56-.43,1.13-.83,1.7-1.21.21-.15.43-.3.66-.44.6-.39,1.2-.76,1.81-1.1l.72-.4c.73-.4,1.47-.78,2.22-1.12l.38-.17c.39-.18.79-.35,1.18-.51s.93-.38,1.4-.55l1-.34.7-.23c.39-.13.78-.24,1.17-.35s1-.26,1.46-.38,1-.23,1.47-.32.79-.16,1.19-.22l.42-.07c.35-.06.72-.1,1.08-.15.64-.09,1.28-.15,1.93-.2q.54,0,1.08-.06c.62,0,1.23-.05,1.85-.05l1.22,0,.48,0c.43,0,.87,0,1.3.08A7.4,7.4,0,0,1,233,65c.37,0,.73.07,1.09.12a4.11,4.11,0,0,1,.6.08c.4,0,.8.12,1.2.19l.13,0Z" transform="translate(0 0)"/><path class="cls-3" d="M130.84,129.27c.14.57.27,1.14.41,1.71a38.56,38.56,0,0,1-8.88,6.71q-1.37-6.18-2.86-12.32c0-.11-.06-.23-.08-.34l-.6-2.41A101.07,101.07,0,0,1,121,69a38.68,38.68,0,0,1,10.26,7.45,100.93,100.93,0,0,0-1.11,50.06c.2.8.39,1.6.59,2.41C130.78,129,130.8,129.15,130.84,129.27Z" transform="translate(0 0)"/><path class="cls-6" d="M150.26,301.61q-5.53-7.58-11.27-15a692.65,692.65,0,0,0-16.62-148.95,38.56,38.56,0,0,0,8.88-6.71A693.15,693.15,0,0,1,150.26,301.61Z" transform="translate(0 0)"/><path class="cls-6" d="M166.36,23.77a101,101,0,0,0-33.82,48.47c-.46,1.4-.88,2.8-1.27,4.21A38.68,38.68,0,0,0,121,69c.06-.22.13-.43.2-.65a101.12,101.12,0,0,1,36.62-50.6A100.87,100.87,0,0,1,166.36,23.77Z" transform="translate(0 0)"/><circle class="cls-3" cx="229.16" cy="103.63" r="38.81"/></g></g></svg>